<svg xmlns="http://www.w3.org/2000/svg" width="16" height="16" viewBox="0 0 16 16">
    <path fill="#176DB7" fill-rule="evenodd" d="M14.006 0C15.107 0 16 .895 16 1.994v12.012C16 15.107 15.105 16 14.006 16H1.994C.893 16 0 15.105 0 14.006V1.994C0 .893.895 0 1.994 0h12.012zm-1.781 4.671c-.192-.173-.489-.158-.662.035L6.31 10.539 4.444 8.467l-.07-.064c-.176-.13-.424-.123-.592.029-.192.173-.208.47-.035.662l2.209 2.452.064.06c.115.088.263.115.399.08.01-.001.019-.004.028-.007l.021-.006c.075-.024.145-.068.201-.131l5.59-6.209c.174-.192.158-.489-.034-.662z"/>
</svg>
