<svg width="132" height="22" viewBox="0 0 132 22" fill="none" xmlns="http://www.w3.org/2000/svg">
  <rect width="22" height="22"/>
  <rect x="1.09998" y="2.75" width="7.15" height="3.85" rx="1.925" fill="#141F35"/>
  <rect x="8.79999" y="2.75" width="11.55" height="3.85" rx="1.925" fill="#3F7BEF"/>
  <rect x="12.65" y="7.14999" width="11.55" height="3.85" rx="1.925" transform="rotate(90 12.65 7.14999)" fill="#BBC9D9"/>
  <path d="M31.1133 16H28.9941V7.76953H26.2803V6.00586H33.8271V7.76953H31.1133V16ZM38.3662 9.69727C37.9242 9.69727 37.5778 9.83854 37.3271 10.1211C37.0765 10.3991 36.9329 10.7956 36.8965 11.3105H39.8223C39.8132 10.7956 39.6787 10.3991 39.4189 10.1211C39.1592 9.83854 38.8083 9.69727 38.3662 9.69727ZM38.6602 16.1367C37.4297 16.1367 36.4681 15.7972 35.7754 15.1182C35.0827 14.4391 34.7363 13.4775 34.7363 12.2334C34.7363 10.9528 35.0553 9.96387 35.6934 9.2666C36.3359 8.56478 37.2223 8.21387 38.3525 8.21387C39.4326 8.21387 40.2734 8.52148 40.875 9.13672C41.4766 9.75195 41.7773 10.6019 41.7773 11.6865V12.6982H36.8486C36.8714 13.2907 37.0469 13.7533 37.375 14.0859C37.7031 14.4186 38.1634 14.585 38.7559 14.585C39.2161 14.585 39.6514 14.5371 40.0615 14.4414C40.4717 14.3457 40.9001 14.193 41.3467 13.9834V15.5967C40.9821 15.779 40.5924 15.9134 40.1777 16C39.763 16.0911 39.2572 16.1367 38.6602 16.1367ZM48.8047 13.7305C48.8047 14.5143 48.5312 15.1113 47.9844 15.5215C47.4421 15.9316 46.6286 16.1367 45.5439 16.1367C44.988 16.1367 44.514 16.098 44.1221 16.0205C43.7301 15.9476 43.3633 15.8382 43.0215 15.6924V13.9697C43.4089 14.152 43.8441 14.3047 44.3271 14.4277C44.8148 14.5508 45.2432 14.6123 45.6123 14.6123C46.3688 14.6123 46.7471 14.3936 46.7471 13.9561C46.7471 13.792 46.6969 13.6598 46.5967 13.5596C46.4964 13.4548 46.3232 13.3385 46.0771 13.2109C45.8311 13.0788 45.5029 12.9261 45.0928 12.7529C44.5049 12.5068 44.0719 12.279 43.7939 12.0693C43.5205 11.8597 43.32 11.6204 43.1924 11.3516C43.0693 11.0781 43.0078 10.7432 43.0078 10.3467C43.0078 9.66764 43.2699 9.14355 43.7939 8.77441C44.3226 8.40072 45.07 8.21387 46.0361 8.21387C46.9567 8.21387 47.8522 8.41439 48.7227 8.81543L48.0938 10.3193C47.7109 10.1553 47.3532 10.0208 47.0205 9.91602C46.6878 9.8112 46.3483 9.75879 46.002 9.75879C45.3867 9.75879 45.0791 9.92513 45.0791 10.2578C45.0791 10.4447 45.1771 10.6064 45.373 10.7432C45.5736 10.8799 46.0088 11.0827 46.6787 11.3516C47.2757 11.5931 47.7132 11.8187 47.9912 12.0283C48.2692 12.238 48.4743 12.4795 48.6064 12.7529C48.7386 13.0264 48.8047 13.3522 48.8047 13.7305ZM52.5166 16H50.4316V5.36328H52.5166V16ZM57.876 9.69727C57.4339 9.69727 57.0876 9.83854 56.8369 10.1211C56.5863 10.3991 56.4427 10.7956 56.4062 11.3105H59.332C59.3229 10.7956 59.1885 10.3991 58.9287 10.1211C58.6689 9.83854 58.318 9.69727 57.876 9.69727ZM58.1699 16.1367C56.9395 16.1367 55.9779 15.7972 55.2852 15.1182C54.5924 14.4391 54.2461 13.4775 54.2461 12.2334C54.2461 10.9528 54.5651 9.96387 55.2031 9.2666C55.8457 8.56478 56.7321 8.21387 57.8623 8.21387C58.9424 8.21387 59.7832 8.52148 60.3848 9.13672C60.9863 9.75195 61.2871 10.6019 61.2871 11.6865V12.6982H56.3584C56.3812 13.2907 56.5566 13.7533 56.8848 14.0859C57.2129 14.4186 57.6732 14.585 58.2656 14.585C58.7259 14.585 59.1611 14.5371 59.5713 14.4414C59.9814 14.3457 60.4098 14.193 60.8564 13.9834V15.5967C60.4919 15.779 60.1022 15.9134 59.6875 16C59.2728 16.0911 58.7669 16.1367 58.1699 16.1367ZM67.248 8.21387C67.5306 8.21387 67.7653 8.23438 67.9521 8.27539L67.7949 10.2305C67.6263 10.1849 67.4212 10.1621 67.1797 10.1621C66.5143 10.1621 65.9948 10.333 65.6211 10.6748C65.252 11.0166 65.0674 11.4951 65.0674 12.1104V16H62.9824V8.35742H64.5615L64.8691 9.64258H64.9717C65.2087 9.21419 65.5277 8.87012 65.9287 8.61035C66.3343 8.34603 66.7741 8.21387 67.248 8.21387ZM81.4326 10.9072C81.4326 12.5524 80.9632 13.8125 80.0244 14.6875C79.0902 15.5625 77.7389 16 75.9707 16H73.1406V6.00586H76.2783C77.9098 6.00586 79.1768 6.43652 80.0791 7.29785C80.9814 8.15918 81.4326 9.3623 81.4326 10.9072ZM79.2314 10.9619C79.2314 8.81543 78.2835 7.74219 76.3877 7.74219H75.2598V14.25H76.1689C78.2106 14.25 79.2314 13.154 79.2314 10.9619ZM86.5049 9.69727C86.0628 9.69727 85.7165 9.83854 85.4658 10.1211C85.2152 10.3991 85.0716 10.7956 85.0352 11.3105H87.9609C87.9518 10.7956 87.8174 10.3991 87.5576 10.1211C87.2979 9.83854 86.9469 9.69727 86.5049 9.69727ZM86.7988 16.1367C85.5684 16.1367 84.6068 15.7972 83.9141 15.1182C83.2214 14.4391 82.875 13.4775 82.875 12.2334C82.875 10.9528 83.194 9.96387 83.832 9.2666C84.4746 8.56478 85.361 8.21387 86.4912 8.21387C87.5713 8.21387 88.4121 8.52148 89.0137 9.13672C89.6152 9.75195 89.916 10.6019 89.916 11.6865V12.6982H84.9873C85.0101 13.2907 85.1855 13.7533 85.5137 14.0859C85.8418 14.4186 86.3021 14.585 86.8945 14.585C87.3548 14.585 87.79 14.5371 88.2002 14.4414C88.6104 14.3457 89.0387 14.193 89.4854 13.9834V15.5967C89.1208 15.779 88.7311 15.9134 88.3164 16C87.9017 16.0911 87.3958 16.1367 86.7988 16.1367ZM98.4541 16H96.3691V11.5361C96.3691 10.9847 96.2757 10.5723 96.0889 10.2988C95.9066 10.0208 95.6172 9.88184 95.2207 9.88184C94.6875 9.88184 94.3001 10.0778 94.0586 10.4697C93.8171 10.8617 93.6963 11.5065 93.6963 12.4043V16H91.6113V8.35742H93.2041L93.4844 9.33496H93.6006C93.8057 8.98405 94.1019 8.71061 94.4893 8.51465C94.8766 8.31413 95.321 8.21387 95.8223 8.21387C96.9661 8.21387 97.7409 8.58757 98.1465 9.33496H98.3311C98.5361 8.97949 98.8369 8.70378 99.2334 8.50781C99.6344 8.31185 100.086 8.21387 100.587 8.21387C101.453 8.21387 102.107 8.43717 102.549 8.88379C102.995 9.32585 103.219 10.0368 103.219 11.0166V16H101.127V11.5361C101.127 10.9847 101.034 10.5723 100.847 10.2988C100.664 10.0208 100.375 9.88184 99.9785 9.88184C99.4681 9.88184 99.0853 10.0641 98.8301 10.4287C98.5794 10.7933 98.4541 11.3721 98.4541 12.165V16ZM107.026 12.165C107.026 12.9215 107.149 13.4935 107.396 13.8809C107.646 14.2682 108.052 14.4619 108.612 14.4619C109.168 14.4619 109.567 14.2705 109.809 13.8877C110.055 13.5003 110.178 12.9261 110.178 12.165C110.178 11.4085 110.055 10.8411 109.809 10.4629C109.562 10.0846 109.159 9.89551 108.599 9.89551C108.043 9.89551 107.642 10.0846 107.396 10.4629C107.149 10.8366 107.026 11.404 107.026 12.165ZM112.311 12.165C112.311 13.4092 111.982 14.3822 111.326 15.084C110.67 15.7858 109.756 16.1367 108.585 16.1367C107.851 16.1367 107.204 15.9772 106.644 15.6582C106.083 15.3346 105.652 14.8721 105.352 14.2705C105.051 13.6689 104.9 12.9671 104.9 12.165C104.9 10.9163 105.226 9.94564 105.878 9.25293C106.53 8.56022 107.446 8.21387 108.626 8.21387C109.36 8.21387 110.007 8.37337 110.567 8.69238C111.128 9.01139 111.559 9.4694 111.859 10.0664C112.16 10.6634 112.311 11.363 112.311 12.165ZM125.969 6.00586V12.4727C125.969 13.2109 125.802 13.8581 125.47 14.4141C125.142 14.9701 124.665 15.3962 124.041 15.6924C123.417 15.9886 122.678 16.1367 121.826 16.1367C120.541 16.1367 119.543 15.8086 118.832 15.1523C118.121 14.4915 117.766 13.5892 117.766 12.4453V6.00586H119.878V12.124C119.878 12.8942 120.033 13.4593 120.343 13.8193C120.653 14.1794 121.165 14.3594 121.881 14.3594C122.574 14.3594 123.075 14.1794 123.385 13.8193C123.699 13.4548 123.856 12.8851 123.856 12.1104V6.00586H125.969ZM128.416 16V6.00586H130.535V16H128.416Z" fill="#3F7BEF"/>
</svg>
